<svg width="100" height="100" viewBox="0 0 100 100" fill="none" xmlns="http://www.w3.org/2000/svg">
<g clip-path="url(#clip0_1401_22322)">
<rect x="3.5" y="3.5" width="93" height="93" stroke="white" stroke-width="7"/>
<path d="M40.6676 66.775C39.5842 66.775 38.8009 66.6083 38.3176 66.275C37.8342 65.9417 37.5009 65.3917 37.3176 64.625C37.2842 64.1917 37.2509 63.7333 37.2176 63.25C37.2009 62.7667 37.1842 62.275 37.1676 61.775C37.1676 61.275 37.1592 60.7833 37.1426 60.3C37.1426 59.8167 37.1342 59.3667 37.1176 58.95C37.1176 58.5333 37.1176 58.1667 37.1176 57.85C37.1009 57.0167 37.0176 56.375 36.8676 55.925C36.7342 55.475 36.4926 55.15 36.1426 54.95C35.7592 54.7167 35.1842 54.5417 34.4176 54.425C33.6676 54.3083 32.4842 54.25 30.8676 54.25C29.9842 54.25 29.2509 54.2667 28.6676 54.3C28.1009 54.3167 27.6342 54.35 27.2676 54.4C26.9176 54.45 26.6259 54.5167 26.3926 54.6C26.1592 54.6667 25.9426 54.75 25.7426 54.85C25.5259 54.95 25.3092 55.1083 25.0926 55.325C24.8926 55.5417 24.7426 55.85 24.6426 56.25C24.5759 56.4667 24.5176 56.725 24.4676 57.025C24.4176 57.325 24.3676 57.65 24.3176 58C24.2676 58.35 24.2176 58.75 24.1676 59.2C24.1342 59.6333 24.0926 60.1167 24.0426 60.65C24.0092 61.1833 23.9759 61.7667 23.9426 62.4C23.8092 63.45 23.5759 64.2667 23.2426 64.85C22.9259 65.4333 22.4759 65.8417 21.8926 66.075C21.3092 66.3083 20.5842 66.425 19.7176 66.425C18.4176 66.425 17.4009 66 16.6676 65.15C15.9509 64.2833 15.4092 63.1833 15.0426 61.85C14.8926 61.2167 14.7592 60.4917 14.6426 59.675C14.5426 58.8417 14.4592 57.9667 14.3926 57.05C14.3259 56.1333 14.2759 55.2333 14.2426 54.35C14.2259 53.45 14.2176 52.6083 14.2176 51.825C14.2176 50.775 14.2342 49.7583 14.2676 48.775C14.3009 47.7917 14.3509 46.85 14.4176 45.95C14.5009 45.0333 14.5926 44.175 14.6926 43.375C14.8092 42.5583 14.9426 41.7917 15.0926 41.075C15.3926 39.8083 15.7759 38.7333 16.2426 37.85C16.7092 36.95 17.2926 36.2583 17.9926 35.775C18.6926 35.2917 19.5259 35.05 20.4926 35.05C21.5926 35.05 22.4259 35.3167 22.9926 35.85C23.5592 36.3833 23.9676 37.2333 24.2176 38.4C24.2676 38.7833 24.3176 39.175 24.3676 39.575C24.4176 39.975 24.4676 40.375 24.5176 40.775C24.5842 41.1583 24.6342 41.5333 24.6676 41.9C24.7176 42.25 24.7676 42.5667 24.8176 42.85C24.8676 43.1333 24.9176 43.3667 24.9676 43.55C25.0842 44.15 25.2342 44.6583 25.4176 45.075C25.6009 45.475 25.8759 45.7667 26.2426 45.95C26.7259 46.15 27.3759 46.2917 28.1926 46.375C29.0259 46.4417 29.9092 46.475 30.8426 46.475C31.6759 46.475 32.4342 46.475 33.1176 46.475C33.8176 46.4583 34.4176 46.425 34.9176 46.375C35.4342 46.3083 35.8259 46.1917 36.0926 46.025C36.4092 45.8583 36.6676 45.5833 36.8676 45.2C37.0676 44.8 37.2092 44.175 37.2926 43.325C37.3426 42.925 37.3842 42.4917 37.4176 42.025C37.4676 41.5583 37.5176 41.0667 37.5676 40.55C37.6342 40.0333 37.7092 39.5083 37.7926 38.975C37.8926 38.425 38.0092 37.875 38.1426 37.325C38.3926 36.325 38.7926 35.5917 39.3426 35.125C39.8926 34.6583 40.5842 34.425 41.4176 34.425C42.6509 34.425 43.6092 34.775 44.2926 35.475C44.9926 36.175 45.5176 37.2417 45.8676 38.675C46.0342 39.2083 46.1759 39.8583 46.2926 40.625C46.4092 41.375 46.5092 42.2167 46.5926 43.15C46.6759 44.0833 46.7342 45.075 46.7676 46.125C46.8176 47.1583 46.8426 48.225 46.8426 49.325C46.8426 50.2417 46.8176 51.1833 46.7676 52.15C46.7342 53.1167 46.6759 54.075 46.5926 55.025C46.5259 55.9583 46.4426 56.8583 46.3426 57.725C46.2426 58.5917 46.1259 59.4083 45.9926 60.175C45.8759 60.925 45.7426 61.6083 45.5926 62.225C45.2092 63.725 44.5926 64.8583 43.7426 65.625C42.9092 66.3917 41.8842 66.775 40.6676 66.775ZM57.0531 67.2C56.0865 67.2 55.2865 66.9833 54.6531 66.55C54.0365 66.1167 53.5198 65.5167 53.1031 64.75C52.8865 64.3333 52.6865 63.7417 52.5031 62.975C52.3365 62.2083 52.1865 61.3333 52.0531 60.35C51.9198 59.3667 51.8031 58.3333 51.7031 57.25C51.6031 56.1667 51.5198 55.1 51.4531 54.05C51.3865 52.9833 51.3365 52.0083 51.3031 51.125C51.2865 50.225 51.2781 49.475 51.2781 48.875C51.2781 46.3583 51.4531 44.2 51.8031 42.4C52.1698 40.5833 52.8198 39.1917 53.7531 38.225C54.7031 37.2583 56.0448 36.775 57.7781 36.775C58.8948 36.775 59.9115 37.0667 60.8281 37.65C61.7448 38.2167 62.7365 39.1083 63.8031 40.325C64.8698 41.5417 66.1698 43.1333 67.7031 45.1C69.5531 47.5833 71.1198 49.5083 72.4031 50.875C73.6865 52.225 74.6365 52.9 75.2531 52.9C75.5531 52.9 75.7948 52.85 75.9781 52.75C76.1615 52.6333 76.3115 52.4083 76.4281 52.075C76.5448 51.7417 76.6365 51.2583 76.7031 50.625C76.7365 50.325 76.7615 49.9 76.7781 49.35C76.8115 48.7833 76.8365 48.1417 76.8531 47.425C76.8865 46.7083 76.9198 45.975 76.9531 45.225C76.9865 44.475 77.0198 43.7583 77.0531 43.075C77.0865 42.375 77.1281 41.7667 77.1781 41.25C77.2281 40.7333 77.2781 40.3667 77.3281 40.15C77.6615 39.0167 78.1531 38.225 78.8031 37.775C79.4698 37.3083 80.3948 37.075 81.5781 37.075C82.4781 37.075 83.2365 37.225 83.8531 37.525C84.4698 37.825 84.9698 38.275 85.3531 38.875C85.7365 39.4583 86.0115 40.1917 86.1781 41.075C86.3615 41.9417 86.4615 42.9417 86.4781 44.075C86.4781 44.6583 86.4698 45.3917 86.4531 46.275C86.4531 47.1417 86.4448 48.1 86.4281 49.15C86.4115 50.1833 86.3698 51.25 86.3031 52.35C86.2531 53.45 86.1865 54.525 86.1031 55.575C86.0365 56.625 85.9448 57.6 85.8281 58.5C85.7115 59.3833 85.5698 60.1333 85.4031 60.75C85.0698 62.0667 84.6281 63.1583 84.0781 64.025C83.5448 64.8917 82.8615 65.5417 82.0281 65.975C81.1948 66.3917 80.1698 66.6 78.9531 66.6C77.9198 66.6 76.8365 66.2083 75.7031 65.425C74.5698 64.625 73.3948 63.55 72.1781 62.2C70.9615 60.8333 69.7031 59.2833 68.4031 57.55C67.5531 56.4333 66.7865 55.4333 66.1031 54.55C65.4365 53.6667 64.8531 52.925 64.3531 52.325C63.8531 51.7083 63.4281 51.2417 63.0781 50.925C62.7281 50.6083 62.4448 50.45 62.2281 50.45C61.7615 50.45 61.4281 50.6917 61.2281 51.175C61.0281 51.6417 60.9281 52.6 60.9281 54.05C60.9281 54.6167 60.9365 55.2333 60.9531 55.9C60.9698 56.55 60.9865 57.225 61.0031 57.925C61.0365 58.625 61.0615 59.3167 61.0781 60C61.0948 60.6667 61.0948 61.3167 61.0781 61.95C61.0615 62.5833 61.0365 63.1667 61.0031 63.7C60.9865 64.2333 60.9448 64.7 60.8781 65.1C60.5448 65.8667 60.0531 66.4083 59.4031 66.725C58.7698 67.0417 57.9865 67.2 57.0531 67.2Z" fill="white"/>
</g>
<defs>
<clipPath id="clip0_1401_22322">
<rect width="100" height="100" fill="white"/>
</clipPath>
</defs>
</svg>
